<?xml version="1.0" encoding="utf-8"?>
<svg version="1.1" xmlns="http://www.w3.org/2000/svg" xmlns:xlink="http://www.w3.org/1999/xlink" x="0px" y="0px"
	 viewBox="0 0 512 512" style="enable-background:new 0 0 512 512;" xml:space="preserve">
<style type="text/css">
	.st0{fill-rule:evenodd;clip-rule:evenodd;fill:#0280FC;}
	.st1{clip-path:url(#SVGID_2_);}
	.st2{fill-rule:evenodd;clip-rule:evenodd;fill:#FFFFFF;}
</style>
<rect class="st0" width="512" height="512"/>
<g>
	<defs>
		<rect id="SVGID_1_" width="512" height="512"/>
	</defs>
	<clipPath id="SVGID_2_">
		<use xlink:href="#SVGID_1_"  style="overflow:visible;"/>
	</clipPath>
	<g class="st1">
		<g>
			<g>
				<g>
					<path class="st2" d="M178.9,305.1c6.8,0,12.3,5.5,12.3,12.4c0,6.8-5.5,12.4-12.3,12.4c-6.8,0-12.3-5.5-12.3-12.4
						C166.5,310.6,172.1,305.1,178.9,305.1z M178.9,341.4c13.2,0,24-10.7,24-24c0-13.2-10.7-24-24-24c-13.2,0-24,10.7-24,24
						C154.9,330.7,165.6,341.4,178.9,341.4z"/>
					<path class="st2" d="M318.2,337.2c-10.1,0-18.3-8.2-18.3-18.3c0-10.1,8.2-18.3,18.3-18.3c10.1,0,18.3,8.2,18.3,18.3
						C336.4,329,328.3,337.2,318.2,337.2z M489.7,596.4c-6.1-3-23.7,5.7-42.5-7.1c-11-7.5-29.8-16.3-49.5-66.2
						c-8.6-33.8-29-62.9-56.5-82.7c53.2-30,89.1-87,89.1-152.5c0-71.3-42.6-132.6-103.7-159.9h0c0,0-32.3-14.2-17.2-31.7
						c1.2-1.3,2.6-7.3-7.2-5.8c-10.7,1.6-28.4,5.9-41.6,22.4c0,0-1.9-21.6,3.4-35.5c0.5-1.3,3.5-7.3-2.1-10.2
						c-5.4-2.9-13.1,3.8-16.5,6.7c-3.4,2.9-61.5,54.2-61.6,54.2c-60.7,27.3-103.4,88.6-103.4,159.7c0,28.7,6.9,55.8,19.2,79.7v-53.8
						c0-16,13-29,29-29h53.1c16,0,29,13,29,29v46l38.7-24.1c3.2-2,8.5-2,11.7,0l44.1,27.5c0.6,0.4,1.1,0.8,1.5,1.3l-51.7,15.4
						l-44.4-13.2v7.2l43.4,12.9c0.3,0.1,0.7,0.1,1,0.1c0.3,0,0.7,0,1-0.1l45.4-13.5l-40.5,27.1c-3.2,2.1-8.3,2.1-11.5,0l-38.8-26
						v30.4c0,16-13,29-29,29h-2.2c-0.3-1.1-0.7-2.3-1.1-3.5c0,0,12.4-23.3-7.3-30.9c0,0,6.6-17.9-15.3-23.1
						c-14.9-3.5-35.6-1.9-56.2,13.6v0c-7.5,5.6-15,13.1-22.2,22.8c-57.6,77.7-56.1,126.3-43.3,137c19.9,16.7,56.7-12.6,82.3-37.9
						c-5.1,14.9-7.9,31-7.9,47.7c0,19.8,3.9,38.7,11.1,56l0,0c8.8,30.2,48.4,79.9,60,96.6c12.8,18.6,12.8,43.7,12.8,43.7
						c-17.2,7-38.4,25.6-38.4,25.6c11.3,2.1,35.9-6.1,35.9-6.1c-18.5,7.7-22.5,17.9-22.5,17.9c14.4-6.2,32.9-16.9,32.9-16.9
						c-16.7,14.9-16.7,21.5-16.7,21.5c17.3-11.3,33.3-25.6,33.3-25.6c6.9,1,12,8.2,12,8.2c1.3-15.4-20.3-27.6-20.3-27.6
						c-4.3-26.8,1.7-46.5,46.9-46.5c0.6,0,1.2,0,1.8,0c0,0,8.1,0.3,10.7,0.6c33.7,4,38.3,21.8,34.4,45.9c0,0-21.6,12.2-20.3,27.6
						c0,0,5.1-7.2,12-8.2c0,0,16,14.3,33.3,25.6c0,0,0-6.7-16.7-21.5c0,0,18.5,10.7,32.9,16.9c0,0-4-10.2-22.5-17.9
						c0,0,24.6,8.2,35.9,6.1c0,0-21.2-18.6-38.4-25.6c0,0,0-25.1,12.8-43.7c3.1-4.4,8.1-11.2,14-19.3c9.1-3.1,18.1-6.8,26.6-11.3
						c44.3-23.8,69.8-39.9,111.9-54c6.1-2,7.5-5.8,6.7-9.3c-1.3-5.9-14.1,0.2-33.7-2.8c0,0,29-5.1,33.1-8.1
						C493.8,604.4,495.8,599.4,489.7,596.4z"/>
				</g>
			</g>
		</g>
	</g>
</g>
</svg>
